<svg xmlns="http://www.w3.org/2000/svg" width="1200" height="1180" viewBox="0 0 1200 1180"><title>My Fit Ideas stacked logo</title><defs><linearGradient id="leafGrad" x1="0" y1="0" x2="0.9" y2="1"><stop offset="0" stop-color="#13B84F"/><stop offset="0.58" stop-color="#0D8F43"/><stop offset="1" stop-color="#087237"/></linearGradient><linearGradient id="leafShade" x1="0" y1="0" x2="1" y2="1"><stop offset="0" stop-color="#0D8F43" stop-opacity="0"/><stop offset="1" stop-color="#05622E" stop-opacity="0.36"/></linearGradient><linearGradient id="personGrad" x1="0" y1="0" x2="0.8" y2="1"><stop offset="0" stop-color="#A6E85A"/><stop offset="1" stop-color="#82D63A"/></linearGradient></defs><g transform="translate(100 30)"><path fill="url(#leafGrad)" d="M500 18 C635 150 654 308 592 414 C568 455 537 483 500 505 C463 483 432 455 408 414 C346 308 365 150 500 18 Z"/><path fill="url(#leafGrad)" d="M18 330 C180 304 330 330 415 416 C462 463 486 526 484 650 C306 652 171 607 91 514 C47 463 23 401 18 330 Z"/><path fill="url(#leafGrad)" d="M982 330 C820 304 670 330 585 416 C538 463 514 526 516 650 C694 652 829 607 909 514 C953 463 977 401 982 330 Z"/><path fill="url(#leafShade)" d="M18 330 C185 365 346 453 484 650 C306 652 171 607 91 514 C47 463 23 401 18 330 Z"/><path fill="url(#leafShade)" d="M982 330 C815 365 654 453 516 650 C694 652 829 607 909 514 C953 463 977 401 982 330 Z"/><g fill="url(#personGrad)" stroke="#FFFFFF" stroke-width="18" stroke-linejoin="round" stroke-linecap="round"><circle cx="500" cy="366" r="70"/><path d="M327 422 C370 455 408 479 438 492 C462 502 476 527 481 558 L489 650 H511 L519 558 C524 527 538 502 562 492 C592 479 630 455 673 422 L690 440 C628 496 590 540 574 598 L560 650 H440 L426 598 C410 540 372 496 310 440 Z"/></g></g><text x="600" y="875" text-anchor="middle" font-family="Poppins,DejaVu Sans Condensed,Arial Narrow,sans-serif" font-size="145" font-weight="700" letter-spacing="-3"><tspan fill="#A6E85A">My Fit </tspan><tspan fill="#0D8F43">Ideas</tspan></text><g><text x="600" y="1010" text-anchor="middle" font-family="Inter,Arial,sans-serif" font-size="34" fill="#1F2937">Your Body. Your Journey. Your Best.</text><circle cx="245" cy="999" r="5" fill="#0D8F43"/><line x1="130" y1="999" x2="228" y2="999" stroke="#0D8F43" stroke-width="3"/><circle cx="955" cy="999" r="5" fill="#0D8F43"/><line x1="972" y1="999" x2="1070" y2="999" stroke="#0D8F43" stroke-width="3"/></g></svg>